<svg id="图层_1" data-name="图层 1" xmlns="http://www.w3.org/2000/svg" viewBox="0 0 500 500"><defs><style>.cls-1{fill:#cdfa50;}</style></defs><rect width="500" height="500"/><path class="cls-1" d="M224.74,226.3c0,8.41-5.27,13.25-14.45,13.25h-7.17v10.32H195v-36.1h15.31C219.47,213.77,224.74,218.31,224.74,226.3Zm-7.74.26c0-4-2.58-6-7.12-6h-6.76v12.23h6.76C214.42,232.75,217,230.68,217,226.56Z"/><path class="cls-1" d="M237.57,213.77v18h16.35v-18h8.15v36.1h-8.15V239H237.57v10.83h-8.15v-36.1Z"/><path class="cls-1" d="M293.41,242.65H276.87L274,249.87h-8.41l15.68-36.1h8.41l15.42,36.1h-8.72Zm-2.9-7.22-5.32-13.15-5.37,13.15Z"/><path class="cls-1" d="M362.2,242.65H345.66l-2.92,7.22h-8.41L350,213.77h8.4l15.43,36.1h-8.72Zm-2.9-7.22L354,222.28l-5.37,13.15Z"/><path class="cls-1" d="M317,213.77v29h15.47v7.12H308.85v-36.1Z"/><path class="cls-1" d="M202.4,273.94l17.53,23.2v-23.2h7.73V310h-7.42l-17.48-23.15V310H195V273.94Z"/><path class="cls-1" d="M260.38,273.94v6.76H241v7.83h17.38v6.76H241v8h19.9V310h-28V273.94Z"/><path class="cls-1" d="M293.73,273.94v6.91h-11V310h-8.15V280.85h-11v-6.91Z"/><path class="cls-1" d="M304.83,273.94l7.58,27.22,7.53-27.22h8l7.63,27.22,7.53-27.22h8.35l-12,36.09h-8.41L323.8,284.3,316.38,310H308l-11.91-36.09Z"/><path class="cls-1" d="M390.6,291.93c0,10.35-8.3,18.29-19.26,18.29s-19.25-7.89-19.25-18.29,8.3-18.17,19.25-18.17S390.6,281.54,390.6,291.93Zm-30.21,0a11.15,11.15,0,0,0,11.06,11.22,11.17,11.17,0,1,0-11.06-11.22Z"/><path class="cls-1" d="M415.72,310,410,299.72h-8.3V310h-8.14V273.94h15.67c9.44,0,14.8,4.54,14.8,12.53,0,5.57-2.37,9.59-6.76,11.65L425,310Zm-14-17.12h7.53c4.49,0,7.06-2.06,7.06-6.18s-2.57-6-7.06-6h-7.53Z"/><path class="cls-1" d="M451.68,310l-10.37-14.69-5.2,5.77V310H428V273.94h8.15v16.4l15-16.4h9.43L447,289l14.48,21Z"/><rect class="cls-1" x="62.6" y="249.96" width="72.2" height="24.07"/><rect class="cls-1" x="134.8" y="213.85" width="24.07" height="36.1"/><polygon class="cls-1" points="62.6 274.03 38.53 274.03 38.53 280.05 38.53 286.06 38.53 310.13 62.6 310.13 62.6 286.06 62.6 286.06 62.6 274.03"/><polygon class="cls-1" points="134.8 189.78 62.6 189.78 59.14 189.78 38.53 189.78 38.53 237.92 38.53 245.61 38.53 249.96 62.6 249.96 62.6 245.61 62.6 237.92 62.6 213.85 134.8 213.85 134.8 189.78"/><rect class="cls-1" x="62.6" y="249.96" width="72.2" height="24.07"/></svg>
